# xmcd
#
# Track frame offsets:
#	150
#	18885
#	36952
#	54315
#	67800
#	84255
#	103970
#	117155
#	132515
#	145732
#	161922
#	176670
#	196147
#
# Disc length: 2899 seconds
#
# Revision: 0
# Processed by: cddbd v1.5.1PL0 Copyright (c) Steve Scherf et al.
# Submitted via: audiograbber 1.83.01
#
DISCID=ac0b510d
DTITLE=John Hiatt - Y'all Caught
DYEAR=1985
DGENRE=Blues
TTITLE0=The Crush
TTITLE1=She Said The Same Things To Me
TTITLE2=Love Like Blood
TTITLE3=Slug Line
TTITLE4=She Loves The Jerk
TTITLE5=My Edge Of The Razor
TTITLE6=Pink Bedroom
TTITLE7=It Hasn't Happened Yet
TTITLE8=Radio Girl
TTITLE9=I Look For Love
TTITLE10=Washable Ink
TTITLE11=Riding With The King
TTITLE12=When We Ran
EXTD=
EXTT0=
EXTT1=
EXTT2=
EXTT3=
EXTT4=
EXTT5=
EXTT6=
EXTT7=
EXTT8=
EXTT9=
EXTT10=
EXTT11=
EXTT12=
PLAYORDER=
